# xmcd
# 
# Track frame offsets:
#     150
#     18565
#     40857
#     62298
#     81958
#     102986
#     124416
#     141979
#     160306
#     183321
#     197491
#     217959
# 
# Disc length: 3197
# 
# Revision: 0
# Processed by: cddbd v1.5.2PL0 Copyright (c) Steve Scherf et al.
# Submitted via: fre:ac v1.0.31
# 
DISCID=a40c7b0c
DTITLE=上戸彩 - プラチナムベスト BEST of UETO AYA -Single Collection-PLUS
DYEAR=2009
DGENRE=
TTITLE0=Pureness
TTITLE1=kizuna
TTITLE2=Hello
TTITLE3=MESSAGE
TTITLE4=PERSONAL
TTITLE5=感傷
TTITLE6=MERMAID
TTITLE7=微熱
TTITLE8=愛のために。
TTITLE9=風
TTITLE10=贈る言葉 ～シングルバージョン～
TTITLE11=あふれそうな愛、抱いて
EXTD=
EXTT0=
EXTT1=
EXTT2=
EXTT3=
EXTT4=
EXTT5=
EXTT6=
EXTT7=
EXTT8=
EXTT9=
EXTT10=
EXTT11=
PLAYORDER=
